# xmcd
#
# Track frame offsets: 
#        150
#        22134
#        41139
#        60708
#        76083
#        90810
#        117375
#        134863
#        149993
#        176774
#        196477
#
# Disc length: 2946 seconds
#
# Revision: 0
# Processed by: cddbd v1.5.2PL0 Copyright (c) Steve Scherf et al.
# Submitted via: ExactAudioCopyFreeDBPlugin 1.0
#
DISCID=a60b800b
DTITLE=Reidar Larsen - Blåtoner Fra Bakrommet
DYEAR=2015
DGENRE=Blues
TTITLE0=Bakromsblues
TTITLE1=I Nått Har Ole Lukkøye Fri
TTITLE2=Nattens Konge
TTITLE3=Janne Jensen
TTITLE4=Slapp Nå Av
TTITLE5=Den Gode Følelsen
TTITLE6=Håndå På Rattet
TTITLE7=Bygdadyret
TTITLE8=Det E Ikkje Mi Tid
TTITLE9=Øve Hau Og Hav
TTITLE10=Kom Tebage Ikkje Gå
EXTD=
EXTT0=
EXTT1=
EXTT2=
EXTT3=
EXTT4=
EXTT5=
EXTT6=
EXTT7=
EXTT8=
EXTT9=
EXTT10=
PLAYORDER=
